<svg width="150" height="58" viewBox="0 0 150 58" fill="none" xmlns="http://www.w3.org/2000/svg">
<path d="M0.00640575 28.4054C0.471889 12.4047 26.1881 -0.300168 57.4459 0.0285141C60.1508 0.0569577 62.8082 0.18202 65.4065 0.397379C38.9846 2.59522 18.674 14.2016 18.2609 28.4054C17.8356 43.0213 38.627 55.3316 66.0535 57.603C62.7107 57.8807 59.2704 58.0084 55.76 57.9714C24.5027 57.6432 -0.459077 44.4056 0.00640575 28.4054Z" fill="url(#paint0_linear_1111_290)"/>
<path d="M91.2816 33.0255C91.7403 33.0205 92.1588 32.6688 92.2423 32.2345L92.7196 29.7468C92.7674 29.349 92.5299 29.0434 92.1624 29.0037L81.9701 28.996C79.6644 28.996 78.0982 28.2479 77.2719 26.7507C76.8674 25.9814 76.7446 25.1448 76.9035 24.2409L77.7505 19.8389C77.9379 18.9351 78.3808 18.0984 79.0797 17.3291C80.4793 15.832 82.3309 15.0834 84.6375 15.0834L98.8729 15.0816L97.9952 20.0096H83.3688C82.9322 20.0349 82.5417 20.3762 82.4613 20.7938L81.9859 23.2612C81.8983 23.719 82.1828 24.0707 82.6171 24.0707L92.7223 24.0784C95.028 24.0784 96.5942 24.8265 97.4204 26.3236C97.825 27.093 97.9482 27.9296 97.7889 28.8334L96.9504 33.2178C96.7631 34.1217 96.3202 34.9583 95.6208 35.7276C94.2217 37.2248 92.3692 37.9729 90.0635 37.9729L74.2935 37.9693C74.4714 37.0388 74.9454 36.0405 75.6592 35.2712C77.0584 33.7745 78.9212 33.026 81.2477 33.026L91.2816 33.0255Z" fill="#002D6A"/>
<path d="M34.7013 33.0296H44.755C47.0607 33.0296 48.6269 33.7777 49.4531 35.2748C49.8681 36.064 49.9715 37.0334 49.794 37.9639C49.794 37.9639 33.8136 37.9598 33.768 37.9449C31.6673 37.8663 30.227 37.1205 29.4464 35.7064C29.0419 34.9371 28.9191 34.1005 29.0776 33.1966L31.6212 19.8389C31.8086 18.9351 32.2515 18.0984 32.9504 17.3291C34.3496 15.832 36.202 15.0834 38.5082 15.0834L54.1829 15.0748C54.0041 16.0054 53.5296 16.9747 52.8127 17.7639C51.4131 19.261 49.5611 20.0091 47.2549 20.0091L37.291 20.0096C36.8481 20.0096 36.4427 20.3378 36.3406 20.7518L34.1437 32.2232C34.062 32.6557 34.3098 32.9916 34.7013 33.0296Z" fill="#002D6A"/>
<path d="M144.897 20.7406C144.915 20.3599 144.644 20.0674 144.248 20.0674L128.182 20.0421L128.207 19.9116C128.394 19.0077 128.837 18.1711 129.536 17.4018C130.936 15.9047 132.788 15.1561 135.094 15.1561H144.866C147.172 15.1561 148.738 15.9042 149.564 17.4018C149.969 18.1711 150.092 19.0077 149.933 19.9116L147.403 33.2824C147.216 34.1863 146.773 35.0229 146.074 35.7922C144.674 37.2893 142.822 38.0375 140.516 38.0375L130.48 38.0411C130.442 38.0406 130.4 38.0325 130.354 38.0176C128.254 37.9395 126.813 37.1932 126.032 35.7791C125.628 35.0098 125.505 34.1732 125.664 33.2693L127.992 21.0412H132.868L130.704 32.3898C130.658 32.7948 130.935 33.114 131.349 33.114H141.759C142.174 33.114 142.577 32.7912 142.683 32.3826L144.897 20.7406Z" fill="#002D6A"/>
<path d="M70.622 20.7406C70.6401 20.3599 70.3687 20.0674 69.9728 20.0674L53.9071 20.0421L53.9319 19.9116C54.1193 19.0077 54.5622 18.1711 55.2611 17.4018C56.6602 15.9047 58.5127 15.1561 60.8189 15.1561H70.5909C72.897 15.1561 74.4628 15.9042 75.289 17.4018C75.6936 18.1711 75.8168 19.0077 75.6574 19.9116L73.1277 33.2824C72.9404 34.1863 72.4975 35.0229 71.7986 35.7922C70.3994 37.2893 68.547 38.0375 66.2408 38.0375L56.2038 38.0411C56.1659 38.0406 56.1239 38.0325 56.0783 38.0176C53.9775 37.9395 52.5373 37.1932 51.7566 35.7791C51.3521 35.0098 51.2293 34.1732 51.3878 33.2693L53.7152 21.0412H58.5912L56.4273 32.3898C56.3812 32.7948 56.6593 33.114 57.0724 33.114H67.4824C67.8982 33.114 68.3005 32.7912 68.4066 32.3826L70.622 20.7406Z" fill="#002D6A"/>
<path d="M100.139 15.083L121.088 15.0834C123.394 15.0834 124.96 15.8315 125.786 17.3291C126.191 18.0984 126.314 18.9346 126.155 19.8389L122.693 37.9693C121.762 37.9693 120.957 37.6862 120.277 37.1196C118.972 36.0071 118.541 34.2978 118.982 31.9916L121.08 20.7943C121.154 20.3785 120.896 20.0376 120.493 20.0096H116.96C116.556 20.0371 116.177 20.3608 116.084 20.7622L112.822 37.9657L107.964 37.9761L111.251 20.7938C111.33 20.378 111.073 20.0376 110.669 20.0096H99.2715L100.139 15.083ZM101.458 20.9081H106.291L102.399 41.248C101.957 43.5537 100.872 45.2635 99.1415 46.3755C98.2444 46.9426 97.3301 47.2252 96.3996 47.2252L101.458 20.9081Z" fill="#002D6A"/>
<path d="M118.491 46.3435C118.69 46.4067 118.924 46.4518 119.222 46.4518C119.792 46.4518 120.153 46.1719 120.315 45.2685L121.047 41.4123H122.347L121.58 45.431C121.291 46.9755 120.622 47.5986 119.24 47.5986C118.861 47.5986 118.437 47.5354 118.247 47.4546L118.491 46.3435Z" fill="#002D6A"/>
<path d="M124.361 45.9191L123.638 47.4997H122.256L125.218 41.4128H126.889L127.603 47.4997H126.239L126.112 45.9191H124.361ZM126.059 44.9258L125.941 43.6165C125.914 43.2824 125.878 42.7948 125.851 42.4241H125.833C125.679 42.7943 125.508 43.2639 125.345 43.6165L124.74 44.9258H126.059Z" fill="#002D6A"/>
<path d="M129.841 41.5297C130.23 41.4304 130.844 41.3672 131.431 41.3672C131.973 41.3672 132.605 41.4575 133.048 41.7735C133.454 42.0534 133.707 42.4783 133.707 43.0648C133.707 43.8323 133.355 44.4102 132.876 44.7809C132.379 45.1691 131.675 45.3407 130.934 45.3407C130.718 45.3407 130.537 45.3226 130.401 45.3046L129.985 47.4993H128.712L129.841 41.5297ZM130.6 44.2486C130.736 44.2757 130.88 44.2937 131.097 44.2937C131.882 44.2937 132.398 43.788 132.398 43.1826C132.398 42.5957 131.973 42.406 131.467 42.406C131.223 42.406 131.052 42.4241 130.943 42.4512L130.6 44.2486Z" fill="#002D6A"/>
<path d="M135.368 45.9191L134.646 47.4997H133.263L136.226 41.4128H137.897L138.61 47.4997H137.246L137.12 45.9191H135.368ZM137.065 44.9258L136.948 43.6165C136.921 43.2824 136.885 42.7948 136.858 42.4241H136.84C136.686 42.7943 136.515 43.2639 136.352 43.6165L135.747 44.9258H137.065Z" fill="#002D6A"/>
<path d="M139.719 47.4997L140.876 41.4128H142.402L143.206 43.7339C143.45 44.5109 143.612 45.143 143.757 45.8112H143.784C143.812 45.1881 143.892 44.5199 144.064 43.6255L144.479 41.4132H145.69L144.543 47.5002H143.198L142.348 45.0707C142.077 44.249 141.915 43.6977 141.752 42.9483L141.725 42.9573C141.653 43.5447 141.509 44.4115 141.328 45.3692L140.93 47.5006H139.719V47.4997Z" fill="#002D6A"/>
<defs>
<linearGradient id="paint0_linear_1111_290" x1="112.912" y1="37.8604" x2="94.0108" y2="-13.1936" gradientUnits="userSpaceOnUse">
<stop stop-color="#FFF200"/>
<stop offset="0.1464" stop-color="#FFE515"/>
<stop offset="0.4292" stop-color="#FFC94D"/>
<stop offset="0.511" stop-color="#FEC057"/>
</linearGradient>
</defs>
</svg>
