<svg width="25" height="25" viewBox="0 0 25 25" fill="none" xmlns="http://www.w3.org/2000/svg">
<path d="M13.7806 13.5083L10.0306 17.2583C9.96094 17.328 9.87822 17.3832 9.78717 17.421C9.69613 17.4587 9.59855 17.4781 9.5 17.4781C9.40145 17.4781 9.30387 17.4587 9.21283 17.421C9.12178 17.3832 9.03906 17.328 8.96937 17.2583C8.89969 17.1886 8.84442 17.1059 8.8067 17.0148C8.76899 16.9238 8.74958 16.8262 8.74958 16.7277C8.74958 16.6291 8.76899 16.5315 8.8067 16.4405C8.84442 16.3494 8.89969 16.2667 8.96937 16.197L11.4397 13.7277H2.75C2.55109 13.7277 2.36032 13.6486 2.21967 13.508C2.07902 13.3673 2 13.1766 2 12.9777C2 12.7787 2.07902 12.588 2.21967 12.4473C2.36032 12.3067 2.55109 12.2277 2.75 12.2277H11.4397L8.96937 9.75829C8.82864 9.61756 8.74958 9.42668 8.74958 9.22766C8.74958 9.02864 8.82864 8.83777 8.96937 8.69704C9.11011 8.55631 9.30098 8.47724 9.5 8.47724C9.69902 8.47724 9.88989 8.55631 10.0306 8.69704L13.7806 12.447C13.8504 12.5167 13.9057 12.5994 13.9434 12.6905C13.9812 12.7815 14.0006 12.8791 14.0006 12.9777C14.0006 13.0762 13.9812 13.1738 13.9434 13.2649C13.9057 13.3559 13.8504 13.4386 13.7806 13.5083ZM19.25 3.97766H13.25C13.0511 3.97766 12.8603 4.05668 12.7197 4.19733C12.579 4.33798 12.5 4.52875 12.5 4.72766C12.5 4.92657 12.579 5.11734 12.7197 5.25799C12.8603 5.39864 13.0511 5.47766 13.25 5.47766H18.5V20.4777H13.25C13.0511 20.4777 12.8603 20.5567 12.7197 20.6973C12.579 20.838 12.5 21.0287 12.5 21.2277C12.5 21.4266 12.579 21.6173 12.7197 21.758C12.8603 21.8986 13.0511 21.9777 13.25 21.9777H19.25C19.4489 21.9777 19.6397 21.8986 19.7803 21.758C19.921 21.6173 20 21.4266 20 21.2277V4.72766C20 4.52875 19.921 4.33798 19.7803 4.19733C19.6397 4.05668 19.4489 3.97766 19.25 3.97766Z" fill="#00122A"/>
</svg>
